<svg xmlns="http://www.w3.org/2000/svg" viewBox="0 0 64 64" aria-labelledby="title">
  <title>Colored yarn ball with crossed knitting needles</title>

  <!-- trailing yarn -->
  <path d="M42 46c4 3 9 5 14 2 3-2 5-2 7 0" stroke="#3b82f6" stroke-width="2" stroke-linecap="round" fill="none"></path>

  <!-- yarn ball outer -->
  <circle cx="28" cy="36" r="14" stroke="#2563eb" stroke-width="3" fill="#3b82f6"></circle>

  <!-- yarn strands -->
  <path d="M18 32c4-4 9-6 15-5" stroke="#bfdbfe" stroke-width="2" stroke-linecap="round" fill="none"></path>
  <path d="M17 38c5-5 11-7 18-6" stroke="#bfdbfe" stroke-width="2" stroke-linecap="round" fill="none"></path>
  <path d="M18 44c5-5 12-7 18-6" stroke="#bfdbfe" stroke-width="2" stroke-linecap="round" fill="none"></path>

  <!-- crossed needles -->
  <!-- needle 1 -->
  <line x1="12" y1="20" x2="50" y2="58" stroke="currentColor" stroke-width="2.5" stroke-linecap="round"></line>
  <circle cx="12" cy="20" r="3" fill="currentColor"></circle>
  <path d="M50 58l2 2" stroke="currentColor" stroke-width="2.5" stroke-linecap="round"></path>

  <!-- needle 2 -->
  <line x1="50" y1="20" x2="12" y2="58" stroke="currentColor" stroke-width="2.5" stroke-linecap="round"></line>
  <circle cx="50" cy="20" r="3" fill="currentColor"></circle>
  <path d="M12 58l-2 2" stroke="currentColor" stroke-width="2.5" stroke-linecap="round"></path>
</svg>
